<svg id="Layer_1" enable-background="new 0 0 513.122 513.122" height="512" viewBox="0 0 513.122 513.122" width="512" xmlns="http://www.w3.org/2000/svg"><g><path d="m498.122 196.083h-115.95c.035-1.495.057-2.994.057-4.497 0-105.381-85.733-191.115-191.114-191.115s-191.115 85.734-191.115 191.115c0 29.615 6.935 59.016 20.095 85.364l-13.72 79.944c-.869 5.067.917 10.228 4.734 13.672 3.815 3.445 9.132 4.694 14.084 3.313l67.053-18.723c12.648 7.661 26.067 13.765 39.999 18.273v57.395c0 8.284 6.716 15 15 15h206.538l34.253 59.327c2.68 4.641 7.631 7.5 12.99 7.5s10.311-2.859 12.99-7.5l34.253-59.327h49.853c8.284 0 15-6.716 15-15v-219.741c0-8.284-6.716-15-15-15zm-403.506 127.837c-1.35 0-2.707.183-4.033.553l-50.632 14.137 10.562-61.542c.563-3.288.016-6.671-1.558-9.612-12.4-23.181-18.955-49.416-18.955-75.87 0-88.839 72.276-161.115 161.115-161.115s161.114 72.276 161.114 161.115-72.275 161.114-161.114 161.114c-31.507 0-62.029-9.102-88.269-26.321-2.469-1.62-5.333-2.459-8.23-2.459zm388.506 91.904h-43.513c-5.359 0-10.311 2.859-12.99 7.5l-25.593 44.327-25.593-44.327c-2.68-4.641-7.631-7.5-12.99-7.5h-200.198v-35.325c9.501 1.443 19.143 2.201 28.87 2.201 93.605 0 171.701-67.646 187.987-156.617h104.02z"/><path d="m104.534 173.944h173.162c8.284 0 15-6.716 15-15s-6.716-15-15-15h-173.162c-8.284 0-15 6.716-15 15s6.716 15 15 15z"/><path d="m292.696 224.227c0-8.284-6.716-15-15-15h-173.162c-8.284 0-15 6.716-15 15s6.716 15 15 15h173.162c8.284 0 15-6.716 15-15z"/></g></svg>